<?xml version="1.0" encoding="UTF-8"?>
<svg id="Layer_2" data-name="Layer 2" xmlns="http://www.w3.org/2000/svg" viewBox="0 0 113.92 220.9">
  <defs>
    <style>
      .cls-1 {
        fill: #fff;
      }
    </style>
  </defs>
  <g id="Layer_1-2" data-name="Layer 1">
    <path class="cls-1" d="M10.77,100.06C-.63,80.88,3.8,57.23,20.33,42.53c0,0-.11,2.72-.11,2.72-.6,9.78,5.99,20.6,16.92,17.24,5.3-1.63,10.3-6.05,10.94-11.78.44-3.91-.73-7.87-1.54-11.77-2.88-11.63-.92-21.54,8.05-29.9,2.68-2.64,7.03-5.17,10.13-7.3-1.57,3.21-4.07,7.54-4.87,10.95-.95,3.56-.71,7.74,1.85,10.55,1.2,1.39,2.92,2.49,4.65,3.92,7.99,6.28,6.34,16.83,3.13,25.1,0,0-2.48-1.32-2.48-1.32,4.52-6.29,10.23-11.72,16.74-15.91,0,0,5.99-3.87,5.99-3.87-2.86,3.9-7.43,8.68-8,13.6-1.89,12.48,15.75,15.34,13.13,28.46-1.73,8.54-9.87,13.96-18.35,11.49-3.09-.86-5.87-2.56-8.14-4.75,2.37,2.07,5.21,3.61,8.25,4.28,6.27,1.53,12.52-1.27,15.44-7.01,2.16-3.95,2.17-8.98-.61-12.63-2.8-3.86-6.81-6.35-9.62-10.45-4.28-5.97-2.57-13.4,1.59-18.84,0,0,1.67,1.78,1.67,1.78-6.15,4.15-11.53,9.43-15.8,15.49,0,0-6.12,8.71-6.12,8.71l3.64-10.04c2.25-6.36,4.09-14.07-.41-19.71-2.04-2.49-4.72-3.63-7.07-6.25-4.96-5.47-3.31-13.67-.2-19.62,0,0,2.31,2.05,2.31,2.05-8.49,5.47-14.19,14.29-12.9,24.6.56,6.26,3.23,12.29,2.47,18.74-.84,6.86-6.7,12.17-13.11,14.04-9.87,2.93-17.65-4.08-19.44-13.52-.42-2.14-.55-4.32-.4-6.48,0,0,1.81.84,1.81.84C4.87,59.73,1.18,82.11,10.77,100.06h0Z"/>
    <g>
      <path class="cls-1" d="M56.02,178.74c-1.78-.09-2.94,1.99-1.89,3.49,4.47,6.16,1.84,13.92-3.1,18.86-1.48,1.51-3.6.22-5.13-.57,0,0-7.96-4.07-7.96-4.07-2.47-1.36-2.41-4.59-2.99-7.03-1.67-8.64-8.76-17.16-17.64-18.75-8.27-1.08-11.07,7.4-6.55,13.44,3,4.33,7.75,7.75,12.25,10.4,2.3.97,4.49,3.21,6.72,2.31,1.01-.61,1.38-1.75.97-2.86-1.02-2-3.53-2.14-5.55-3.58-4.7-2.96-11.78-6.93-11.64-13.19,1.57-5.32,8.87-.34,11.2,2.16,4.59,4.56,7.21,11.31,5.93,17.72-.89,4.64-5.01,8.07-9.75,8-.73.04-1.29.3-1.64.78-2.35,5.37,6.37,2.99,8.58,1.77,2.95-1.14,4.28-4.23,6.6-6.36.62-.48,1.23-.57,1.94-.32,2.69,1.12,5.47,2.55,7.93,3.9,1.96,1.06,1.07,2.2.43,3.74-5.6,9.26,5.44,17.51,9.97,8.26,1.25-2.72.81-6.36-.47-8.97-.42-.93-.89-1.52-.82-2.34.22-.86.82-1.29,1.51-2.17,2.84-3.22,4.95-7.14,5.62-11.35.77-3.47-.4-12.23-4.5-13.29ZM50.64,215.82c-1.12.97-2.5.67-3.28-.56-1.01-1.76.77-5.09,2.18-6.35,1.75.84,2.53,5.64,1.1,6.91Z"/>
      <path class="cls-1" d="M29.42,165.06c1.9,2.75-2.19,5.51-4.15,2.91-1.94-2.69,2.24-5.62,4.15-2.91Z"/>
      <path class="cls-1" d="M48.22,151.58c3.56,3,9.22,6.56,9.34,11.73.12,2.97-2.66,4.94-5.51,4.5,3.37,2.82,5.46,9.95-.4,10.98-6.2.44-13.03-4.51-18.31-6.99-2.82-1.33-.51-5.51,2.21-3.58,3.41,1.75,12.4,7.58,15.92,6.52,1.86-2.93-5.77-7.92-7.65-9.7-3.78-1.8-7.69-3.84-11.58-5.66-.17.25-.47,1.91-.55,2.25-.32,1.87-2.54,2.5-3.63,1.02-.98-1.11.34-4,.21-5.21-1.58-.86-3.45-1.71-4.66-2.36-2.27-1.35-2.8-.72-3.53-2.51-.48-2.02,1.63-3.47,3.44-2.19,1.21.64,3.81,1.94,5.68,2.85,0-.03.01-.06.02-.11,0,0,.37-2.14.37-2.14.62-2.97,4.88-1.41,3.93,1.26,0,0-.46,2.3-.46,2.3-.02.57-.19.59.5.91,2.44.83,20.15,11.37,20.25,7.42-.14-2.98-3.71-5.34-5.84-7.26-1.04-1-2.59-1.41-2.48-2.83.13-1.24,1.68-2.11,2.71-1.2Z"/>
      <path class="cls-1" d="M68.95,104.72c-1.77-.09-2.93,1.99-1.9,3.49,1.13,1.65,1.84,3.33,2.12,4.99.92,5.35-1.87,11.42-6.23,14.49-1.48.31-2.82-.52-4.11-1.19,0,0-7.96-4.06-7.96-4.06-2.48-1.36-2.41-4.59-2.99-7.03-1.67-8.63-8.77-17.18-17.64-18.75-8.27-1.08-11.08,7.41-6.55,13.44,3,4.33,7.75,7.75,12.25,10.4,2.3.97,4.48,3.2,6.72,2.31,1.01-.61,1.36-1.74.97-2.87-1.03-1.99-3.53-2.14-5.56-3.57-4.7-2.96-11.78-6.93-11.64-13.19,1.56-5.32,8.87-.35,11.2,2.16,4.59,4.56,7.21,11.31,5.93,17.72-.89,4.65-5.01,8.05-9.75,8-.74.03-1.29.3-1.64.78-2.36,5.38,6.36,3,8.58,1.78,2.96-1.14,4.27-4.24,6.6-6.37.61-.47,1.23-.57,1.93-.31,2.7,1.13,5.47,2.55,7.93,3.9,1.95,1.05,1.06,2.2.44,3.73-5.61,9.27,5.44,17.52,9.97,8.26,1.24-2.73.8-6.35-.48-8.97-.43-.93-.89-1.51-.82-2.34.22-.86.81-1.29,1.5-2.17,2.86-3.21,4.95-7.13,5.63-11.34.76-3.48-.39-12.23-4.5-13.29ZM63.39,135.74c4.27,10.01-8.1,7.71-1.3-.54v-.03c.43-.57.71-.2,1.3.56Z"/>
      <g>
        <path class="cls-1" d="M61.13,77.55c3.57,3.01,9.22,6.56,9.35,11.74.12,2.98-2.67,4.94-5.52,4.5,3.38,2.81,5.47,9.95-.39,10.98-6.19.44-13.05-4.53-18.31-6.99-2.83-1.34-.51-5.5,2.21-3.58,3.41,1.75,12.4,7.58,15.92,6.52,1.84-2.97-5.75-7.9-7.65-9.7,0,0,0-.01,0-.01-3.78-1.77-7.68-3.84-11.57-5.65-.17.25-.47,1.91-.55,2.25-.32,1.86-2.55,2.5-3.64,1.02-.95-1.1.32-4.01.22-5.21-1.56-.86-3.47-1.72-4.66-2.36-2.25-1.33-2.81-.73-3.53-2.51-.48-2.03,1.63-3.46,3.43-2.2,1.41.75,3.71,1.86,5.68,2.85.01-.03.02-.06.03-.11l.37-2.14c.62-2.97,4.87-1.41,3.93,1.25,0,0-.47,2.3-.47,2.3,0,.57-.18.6.5.91,2.43.83,20.16,11.38,20.26,7.43-.15-2.98-3.7-5.34-5.84-7.26-1.04-1-2.59-1.41-2.48-2.83.14-1.25,1.67-2.11,2.7-1.2Z"/>
        <path class="cls-1" d="M42.34,91.04c1.9,2.75-2.2,5.51-4.15,2.91-1.95-2.7,2.25-5.62,4.15-2.91Z"/>
      </g>
    </g>
    <g>
      <path class="cls-1" d="M73.98,167.86l-4.92-2.02-2.29,5.56,4.92,2.02-1.14,2.77-12.43-5.11,1.14-2.77,4.97,2.04,2.29-5.56-4.97-2.04,1.12-2.73,12.43,5.11-1.12,2.73Z"/>
      <path class="cls-1" d="M75.26,161.63c-1.2.52-2.48.5-3.83-.05s-2.26-1.44-2.76-2.68c-.5-1.24-.46-2.57.13-4s1.5-2.43,2.73-2.96c1.23-.53,2.51-.51,3.85.04s2.27,1.44,2.76,2.66c.49,1.22.43,2.56-.17,4.03s-1.5,2.44-2.7,2.97ZM75.71,155.79c-.29-.56-.76-.96-1.39-1.23s-1.23-.29-1.85-.1c-.62.19-1.07.64-1.37,1.37s-.28,1.35.02,1.92c.31.57.77.98,1.38,1.23s1.23.29,1.84.1c.61-.19,1.06-.64,1.36-1.36s.31-1.38.02-1.93Z"/>
      <path class="cls-1" d="M72.67,146.06l4.63,1.91c1.36.56,2.29.24,2.79-.97.25-.57.24-1.14-.03-1.68-.27-.55-.71-.94-1.3-1.19l-4.53-1.86,1.04-2.52,8.77,3.61-.95,2.31-1.19-.39c.63,1.05.69,2.18.16,3.39-1,2.44-2.94,3.07-5.8,1.89l-4.65-1.91,1.06-2.57Z"/>
      <path class="cls-1" d="M80.92,133.08c-.67.43-1.17,1.03-1.49,1.81-.17.4-.23.74-.19,1.01s.17.46.4.55c.48.2.92-.13,1.3-.98.17-.39.34-.73.51-1.02.17-.3.39-.6.66-.91.27-.31.55-.54.84-.7.29-.16.64-.25,1.06-.27.42-.02.86.06,1.32.25.81.32,1.37.92,1.69,1.79s.21,1.96-.32,3.25c-.64,1.55-1.7,2.72-3.19,3.51l-1.36-1.85c1.07-.57,1.85-1.44,2.36-2.6.17-.37.23-.72.2-1.03-.04-.31-.17-.51-.4-.59-.49-.2-.95.19-1.39,1.17-.2.43-.44.83-.71,1.19-.27.37-.58.69-.94.98-.36.29-.77.47-1.24.54s-.94,0-1.43-.19c-.93-.38-1.49-1.04-1.66-1.97s-.04-1.92.39-2.97c.56-1.36,1.4-2.32,2.52-2.89l1.08,1.92Z"/>
      <path class="cls-1" d="M85.87,128.8c.48.11.95.02,1.41-.27.46-.29.83-.79,1.11-1.47.4-.98.48-1.83.24-2.56l2.19-.78c.5,1.23.42,2.66-.25,4.3s-1.56,2.6-2.75,3.11c-1.19.51-2.51.47-3.94-.12-1.35-.56-2.27-1.42-2.76-2.61-.49-1.18-.44-2.49.14-3.91.64-1.55,1.6-2.54,2.88-2.97,1.28-.43,2.74-.16,4.37.83l-2.65,6.44ZM85.72,123.88c-.46-.16-.89-.09-1.3.21s-.73.74-.96,1.31c-.21.51-.26,1-.17,1.47.1.47.34.86.72,1.17l1.71-4.15Z"/>
      <path class="cls-1" d="M96.64,123.71l-12.62-5.19.94-2.29,1.18.3c-.58-1.01-.61-2.16-.08-3.44s1.38-2.16,2.54-2.62,2.43-.4,3.79.16,2.34,1.43,2.83,2.58c.49,1.14.47,2.37-.07,3.67-.48,1.16-1.27,1.91-2.37,2.24l4.92,2.02-1.06,2.57ZM92.72,114.45c-.26-.56-.72-.98-1.38-1.25s-1.27-.3-1.85-.09-1.01.65-1.29,1.31-.31,1.28-.14,1.9c.18.61.65,1.08,1.42,1.39.7.29,1.35.28,1.94-.03.6-.31,1.02-.78,1.28-1.4s.27-1.26.01-1.82Z"/>
      <path class="cls-1" d="M91.47,100.36l.99-2.4,8.77,3.61-.95,2.31-1.16-.31c.31.45.47.97.47,1.57s-.09,1.15-.29,1.66c-.54,1.34-1.39,2.26-2.56,2.77-1.17.5-2.46.46-3.88-.12s-2.37-1.48-2.84-2.69c-.47-1.21-.42-2.47.15-3.79.23-.57.55-1.04.96-1.42.41-.38.84-.6,1.32-.67l-.98-.5ZM92.49,105.54c.24.61.72,1.06,1.42,1.35s1.36.3,1.96.04c.59-.27,1.03-.73,1.3-1.4s.29-1.34.02-1.96-.7-1.04-1.28-1.28c-.67-.28-1.33-.31-1.97-.09-.64.22-1.1.69-1.41,1.42-.27.66-.29,1.3-.05,1.91Z"/>
      <path class="cls-1" d="M94.34,93.43l1.04.2c-.55-.88-.62-1.82-.21-2.83.34-.83.9-1.44,1.68-1.82l1.59,1.9c-.47.29-.81.7-1.02,1.22-.24.58-.26,1.14-.06,1.68.2.54.61.94,1.24,1.2l4.56,1.88-1.05,2.56-8.75-3.6.98-2.38Z"/>
      <path class="cls-1" d="M95.7,83.27l2.45,1.01.91-2.22,2.13.88-.92,2.24,3.3,1.36c.78.32,1.31.15,1.58-.51.18-.43.25-.81.22-1.15l2.37.29c-.01.67-.14,1.34-.37,2.01-.38,1.05-.96,1.76-1.74,2.14-.78.38-1.82.3-3.11-.23l-3.3-1.36-.64,1.56-2.13-.88.64-1.56-2.17-.89.77-2.67Z"/>
      <path class="cls-1" d="M103.43,71.3l10.5,10.61-1.15,2.79-3.46-3.54-10.01.18,1.18-2.88,6.42.09-4.64-4.42,1.16-2.82Z"/>
    </g>
    <path class="cls-1" d="M22.69,37.65c.07,6.36,1.1,12.51,3.14,18.54-3.83-5.2-5.01-12.36-3.14-18.54h0Z"/>
    <path class="cls-1" d="M30.02,20.49c3.93,2.15,8.23,5.85,7.94,10.8-.3,2.38-1.05,4.4-1.59,6.67-.58,2.17-1.06,4.37-1.72,6.55.12-3.4.56-6.8,1.31-10.12.24-1.1.55-2.2.62-3.21.27-4.42-3.54-7.82-6.56-10.69h0Z"/>
    <path class="cls-1" d="M29.14,24.02c2.47,1.4,4.5,3.7,5.3,6.5.89,2.8-.01,5.9-.82,8.52-1.68,5.15-1.32,10.37.14,15.6-3.27-4.59-4.11-10.87-2.35-16.24.39-1.34.83-2.6,1.11-3.83.99-3.88-.85-7.65-3.39-10.56h0Z"/>
    <path class="cls-1" d="M52.36,24.02c5.54,3.99,7.85,11.63,5.99,18.13-.57,2.17-1.52,4.24-2.83,6.02,1.57-4.02,2.49-8.31,1.97-12.58-.45-4.3-2.39-8.21-5.14-11.57h0Z"/>
    <path class="cls-1" d="M68.58,0c-2.55,5.39-7.01,13.72-2.92,19.19.98,1.29,2.43,2.27,3.76,3.52,4.12,3.69,5.31,9.75,4.01,14.97.39-5.19-.87-10.58-4.89-14.01-1.25-1.14-2.78-2.13-3.97-3.64-4.54-6.16.25-14.68,4.01-20.03h0Z"/>
    <path class="cls-1" d="M83.97,49.47c-1.08-4.48.79-9.93,4.41-12.78-.35,2.33-1.05,4.37-1.78,6.54-.77,2.15-1.48,4.19-2.63,6.24h0Z"/>
    <path class="cls-1" d="M94.59,26.18c2.58,3.79-.13,6.94-2.2,9.94-1.89,2.92-2.28,6.43-2.42,9.89-.48-1.73-.68-3.55-.49-5.38.17-1.82.73-3.67,1.76-5.25,2.14-3.06,4.67-5.22,3.36-9.2h0Z"/>
    <path class="cls-1" d="M87.8,64.83c3.37,7.58-1.57,16.85-9.86,17.97,7.38-3.25,10.97-10.04,9.86-17.97h0Z"/>
    <path class="cls-1" d="M14.54,68.64c-2.87-3.6-2.38-9.49,1.05-12.56-.38,1.07-.74,2.08-.99,3.11-.83,3.13-.7,6.28-.06,9.45h0Z"/>
    <g>
      <path class="cls-1" d="M4.21,145.52l-1.65,3.92-2.56-1.08,4.5-10.69,2.56,1.08-1.65,3.92,10.32,4.35-1.2,2.85-10.32-4.35Z"/>
      <path class="cls-1" d="M6.23,133.57l4.91,2.07c-.57-1.01-.61-2.1-.11-3.29,1.02-2.42,2.98-3.01,5.89-1.79l4.87,2.05-1.12,2.65-4.86-2.05c-.63-.26-1.18-.31-1.65-.14-.48.17-.82.52-1.05,1.04-.24.58-.25,1.14-.02,1.69s.69.97,1.39,1.27l4.6,1.94-1.12,2.65-12.87-5.42,1.12-2.67Z"/>
      <path class="cls-1" d="M16.56,119.64l1.05-2.48,9.09,3.83-1.01,2.39-1.2-.33c.32.47.48,1.02.48,1.64,0,.63-.11,1.2-.31,1.72-.57,1.39-1.47,2.34-2.68,2.85-1.22.51-2.57.46-4.04-.16s-2.45-1.56-2.93-2.82c-.48-1.26-.42-2.58.19-3.94.25-.59.58-1.08,1.01-1.47.42-.39.88-.62,1.37-.69l-1.01-.53ZM17.57,125.03c.25.64.73,1.11,1.47,1.42s1.41.33,2.03.06c.62-.27,1.08-.75,1.36-1.44.3-.71.31-1.39.03-2.03-.28-.64-.72-1.09-1.32-1.35-.7-.29-1.38-.33-2.04-.11-.66.22-1.15.71-1.47,1.47-.29.69-.31,1.35-.07,1.99Z"/>
    </g>
  </g>
</svg>