<?xml version="1.0" encoding="UTF-8"?>
<svg id="Layer_2" data-name="Layer 2" xmlns="http://www.w3.org/2000/svg" viewBox="0 0 159.39 203.42">
  <defs>
    <style>
      .cls-1 {
        fill: #fff;
      }
    </style>
  </defs>
  <g id="Layer_1-2" data-name="Layer 1">
    <path class="cls-1" d="M142.97,157.37c17.93-30.16,10.96-67.35-15.03-90.47,0,0,.18,4.28.18,4.28.95,15.39-9.42,32.4-26.62,27.11-8.34-2.56-16.21-9.52-17.2-18.52-.7-6.14,1.15-12.38,2.43-18.5,4.53-18.29,1.45-33.88-12.66-47.03-4.22-4.15-11.06-8.13-15.93-11.48,2.47,5.05,6.41,11.85,7.66,17.23,1.49,5.6,1.11,12.17-2.91,16.59-1.88,2.18-4.59,3.91-7.32,6.17-12.57,9.87-9.97,26.46-4.93,39.48,0,0,3.91-2.08,3.91-2.08-7.11-9.9-16.1-18.43-26.33-25.02,0,0-9.43-6.09-9.43-6.09,4.5,6.13,11.69,13.65,12.59,21.39,2.98,19.63-24.77,24.13-20.66,44.76,2.72,13.43,15.53,21.95,28.87,18.07,4.85-1.35,9.24-4.02,12.8-7.46-3.73,3.26-8.2,5.67-12.98,6.74-9.85,2.41-19.69-2-24.29-11.02-3.4-6.22-3.41-14.13.96-19.87,4.41-6.08,10.71-9.99,15.13-16.43,6.72-9.39,4.05-21.08-2.5-29.63,0,0-2.63,2.8-2.63,2.8,9.67,6.52,18.13,14.82,24.84,24.36,0,0,9.63,13.71,9.63,13.71l-5.72-15.79c-3.54-10-6.44-22.13.64-31,3.2-3.91,7.42-5.71,11.11-9.83,7.8-8.61,5.21-21.5.32-30.86,0,0-3.63,3.22-3.63,3.22,13.35,8.6,22.32,22.47,20.29,38.69-.88,9.85-5.08,19.33-3.88,29.48,1.32,10.8,10.54,19.15,20.62,22.09,15.52,4.61,27.76-6.42,30.57-21.27.66-3.36.87-6.8.63-10.19,0,0-2.85,1.33-2.85,1.33,23.6,21.63,29.41,56.83,14.33,85.06h0Z"/>
    <g>
      <path class="cls-1" d="M42.2,182.44c-.53-1.7-2.88-2.07-3.93-.57-4.24,6.32-12.43,6.53-18.77,3.59-1.93-.87-1.45-3.3-1.23-5.01,0,0,1.07-8.88,1.07-8.88.43-2.79,3.48-3.84,5.56-5.23,7.54-4.54,13.09-14.14,11.52-23.02-1.83-8.14-10.76-7.84-14.87-1.52-3.03,4.31-4.6,9.95-5.54,15.09-.12,2.49-1.47,5.32.15,7.1.92.74,2.12.69,3.02-.07,1.53-1.65.79-4.05,1.45-6.45,1.16-5.43,2.44-13.45,8.37-15.47,5.53-.36,3.38,8.21,1.83,11.26-2.7,5.88-8.13,10.67-14.59,11.68-4.66.77-9.3-1.92-10.87-6.39-.28-.67-.73-1.11-1.3-1.27-5.85-.36-.61,7.01,1.3,8.67,2.09,2.38,5.45,2.56,8.24,4,.66.42.96.96.96,1.71-.12,2.91-.51,6.01-.93,8.79-.32,2.21-1.69,1.76-3.36,1.69-10.62-2.06-14.56,11.15-4.32,12.2,2.99.24,6.25-1.44,8.26-3.54.73-.71,1.12-1.35,1.91-1.58.89-.09,1.49.32,2.56.67,4,1.56,8.41,2.19,12.59,1.36,3.52-.48,11.35-4.59,10.93-8.81ZM5.54,190.17c-1.29-.71-1.49-2.12-.6-3.28,1.31-1.56,5.05-1.03,6.71-.14-.19,1.93-4.43,4.32-6.11,3.42Z"/>
      <path class="cls-1" d="M45.88,152.75c-1.92,2.73-5.93-.16-4.16-2.89,1.86-2.75,6.05.17,4.16,2.89Z"/>
      <path class="cls-1" d="M65.01,165.75c-1.59,4.38-2.98,10.91-7.8,12.81-2.75,1.14-5.55-.79-6.13-3.62-1.49,4.14-7.45,8.55-10.44,3.41-2.55-5.67-.26-13.79.25-19.59.28-3.11,4.99-2.38,4.12.84-.47,3.8-2.84,14.25-.63,17.19,3.4.74,5.45-8.15,6.47-10.52.38-4.16.96-8.55,1.32-12.82-.3-.07-1.96.21-2.3.26-1.86.34-3.22-1.52-2.21-3.06.7-1.3,3.87-1.06,4.97-1.6.27-1.78.42-3.83.61-5.19.49-2.6-.29-2.88,1.14-4.18,1.73-1.15,3.82.33,3.25,2.48-.18,1.36-.51,4.25-.71,6.32.03,0,.06,0,.11-.02,0,0,2.14-.39,2.14-.39,3-.44,3.01,4.1.17,4.12,0,0-2.32.36-2.32.36-.54.18-.62.03-.68.78.06,2.57-3.73,22.83.01,21.57,2.75-1.16,3.73-5.32,4.8-7.98.58-1.32.43-2.92,1.8-3.3,1.21-.3,2.56.85,2.06,2.13Z"/>
      <path class="cls-1" d="M116.14,169.06c-.53-1.69-2.88-2.06-3.93-.58-1.16,1.63-2.49,2.88-3.96,3.71-4.71,2.71-11.36,2.18-15.75-.85-.81-1.28-.48-2.83-.3-4.26,0,0,1.07-8.88,1.07-8.88.43-2.79,3.48-3.84,5.56-5.23,7.53-4.54,13.1-14.15,11.52-23.02-1.83-8.13-10.77-7.84-14.87-1.52-3.03,4.31-4.6,9.94-5.54,15.09-.12,2.5-1.46,5.31.15,7.1.92.74,2.11.68,3.03-.07,1.51-1.66.79-4.05,1.44-6.45,1.16-5.43,2.45-13.45,8.37-15.47,5.53-.37,3.39,8.21,1.83,11.26-2.7,5.88-8.13,10.67-14.59,11.68-4.67.77-9.29-1.93-10.87-6.39-.28-.68-.73-1.11-1.29-1.27-5.86-.36-.62,7,1.29,8.67,2.09,2.39,5.46,2.55,8.25,4,.65.41.95.96.95,1.71-.13,2.93-.51,6.01-.93,8.79-.31,2.19-1.7,1.75-3.35,1.69-10.63-2.07-14.57,11.15-4.32,12.2,2.99.22,6.24-1.43,8.25-3.54.73-.73,1.11-1.35,1.91-1.58.89-.09,1.49.32,2.56.66,4,1.57,8.4,2.19,12.59,1.37,3.53-.49,11.34-4.58,10.93-8.81ZM85.11,174.53c-7.92,7.46-10.03-4.95.05-1.41h.03c.68.2.43.59-.08,1.41Z"/>
      <g>
        <path class="cls-1" d="M138.95,152.36c-1.59,4.39-2.98,10.91-7.8,12.82-2.76,1.14-5.56-.8-6.13-3.63-1.48,4.14-7.46,8.56-10.44,3.42-2.55-5.66-.25-13.81.25-19.59.28-3.11,4.99-2.38,4.12.84-.47,3.81-2.84,14.25-.63,17.19,3.42.7,5.43-8.13,6.47-10.52,0-.01.01,0,.01,0,.36-4.16.95-8.53,1.31-12.81-.3-.07-1.96.21-2.3.26-1.86.34-3.22-1.53-2.21-3.07.71-1.27,3.87-1.08,4.96-1.59.27-1.76.42-3.85.61-5.19.47-2.57-.28-2.89,1.14-4.18,1.74-1.15,3.81.33,3.25,2.47-.22,1.58-.47,4.12-.71,6.32.03,0,.06,0,.11,0l2.14-.39c3-.44,3,4.09.18,4.12,0,0-2.33.35-2.33.35-.53.19-.62.04-.68.78.06,2.57-3.73,22.84.01,21.58,2.74-1.17,3.74-5.31,4.8-7.98.58-1.32.43-2.92,1.8-3.3,1.22-.3,2.56.84,2.06,2.12Z"/>
        <path class="cls-1" d="M119.81,139.37c-1.92,2.73-5.93-.16-4.16-2.89,1.86-2.76,6.05.18,4.16,2.89Z"/>
      </g>
    </g>
    <g>
      <path class="cls-1" d="M58.61,195.54l.2-5.31-6-.23-.2,5.31-2.99-.11.52-13.43,2.99.11-.21,5.37,6,.23.21-5.37,2.95.11-.52,13.43-2.95-.11Z"/>
      <path class="cls-1" d="M64.9,194.61c-.9-.95-1.33-2.16-1.27-3.61s.58-2.62,1.57-3.51c.99-.9,2.26-1.31,3.8-1.26s2.8.57,3.72,1.54c.92.97,1.35,2.18,1.29,3.62s-.57,2.63-1.55,3.5c-.98.88-2.26,1.29-3.84,1.23s-2.81-.57-3.72-1.52ZM70.53,193.02c.42-.46.64-1.04.67-1.73s-.16-1.25-.55-1.77c-.39-.51-.97-.79-1.76-.82s-1.37.2-1.79.68c-.43.48-.66,1.06-.68,1.72s.15,1.25.54,1.76c.38.51.97.78,1.75.81s1.4-.19,1.82-.65Z"/>
      <path class="cls-1" d="M78.61,186.8l-.19,5.01c-.06,1.47.57,2.23,1.87,2.28.63.04,1.15-.17,1.57-.61.42-.45.64-.99.67-1.63l.19-4.89,2.72.1-.36,9.48-2.49-.1-.05-1.25c-.77.96-1.81,1.4-3.12,1.32-2.63-.1-3.89-1.7-3.77-4.79l.19-5.03,2.78.11Z"/>
      <path class="cls-1" d="M93.65,190.07c-.63-.49-1.37-.74-2.22-.78-.43-.02-.77.04-1.02.17s-.37.32-.38.56c-.02.52.44.82,1.37.88.42.03.8.07,1.14.13.34.06.7.16,1.08.31.39.15.7.33.95.55.25.21.45.51.62.9.16.38.24.83.22,1.32-.02.87-.39,1.6-1.1,2.2s-1.77.87-3.16.82c-1.68-.06-3.14-.66-4.39-1.78l1.26-1.91c.9.8,1.99,1.24,3.25,1.32.41.03.75-.03,1.03-.17.28-.14.42-.34.42-.58.02-.53-.51-.83-1.58-.91-.47-.04-.93-.13-1.36-.25-.44-.13-.85-.31-1.25-.55-.39-.24-.7-.56-.93-.98s-.33-.88-.31-1.4c.04-1.01.46-1.76,1.28-2.24s1.79-.7,2.93-.66c1.47.06,2.66.51,3.58,1.37l-1.43,1.67Z"/>
      <path class="cls-1" d="M99.36,193.25c.06.49.3.9.74,1.23.44.33,1.02.51,1.77.54,1.06.04,1.89-.18,2.48-.65l1.49,1.79c-.98.9-2.36,1.31-4.12,1.24s-2.98-.57-3.87-1.51c-.89-.94-1.31-2.19-1.25-3.74.06-1.46.56-2.62,1.5-3.49.94-.87,2.18-1.27,3.72-1.21,1.68.06,2.94.62,3.79,1.68.85,1.06,1.09,2.52.72,4.39l-6.96-.27ZM103.93,191.41c0-.49-.22-.87-.65-1.15s-.94-.43-1.56-.45c-.55-.02-1.03.1-1.43.35-.41.25-.69.61-.85,1.08l4.49.17Z"/>
      <path class="cls-1" d="M107.86,201.61l.52-13.64,2.47.1.13,1.22c.75-.89,1.82-1.31,3.2-1.26s2.51.55,3.33,1.48,1.21,2.14,1.16,3.61-.54,2.69-1.44,3.55c-.9.86-2.06,1.26-3.47,1.2-1.25-.05-2.23-.53-2.92-1.46l-.2,5.31-2.78-.11ZM115.2,194.73c.44-.44.67-1.01.7-1.73s-.16-1.29-.56-1.77-.96-.73-1.67-.76-1.31.15-1.83.53c-.51.38-.79.98-.82,1.81-.03.75.2,1.36.7,1.81.5.45,1.08.69,1.76.72s1.27-.18,1.71-.62Z"/>
      <path class="cls-1" d="M127.99,188.7l2.59.1-.36,9.48-2.49-.1-.11-1.2c-.31.45-.75.78-1.32.99s-1.12.31-1.65.3c-1.45-.04-2.61-.53-3.48-1.45-.87-.92-1.28-2.15-1.22-3.69s.58-2.73,1.55-3.59c.97-.86,2.18-1.25,3.61-1.17.61.02,1.17.16,1.67.41.5.25.86.58,1.09,1l.14-1.09ZM123.49,191.44c-.49.44-.75,1.04-.78,1.8s.18,1.38.64,1.85c.46.47,1.04.71,1.76.74s1.36-.19,1.84-.66.74-1.02.76-1.64c.03-.73-.17-1.35-.59-1.88-.42-.52-1.03-.8-1.82-.83-.72-.03-1.32.18-1.81.61Z"/>
      <path class="cls-1" d="M135.49,189.01l.17,1.04c.63-.82,1.49-1.21,2.58-1.17.89.03,1.66.35,2.29.95l-1.23,2.14c-.44-.34-.93-.52-1.5-.54-.63-.02-1.16.15-1.6.52-.44.37-.67.9-.69,1.58l-.19,4.93-2.76-.11.36-9.46,2.57.1Z"/>
      <path class="cls-1" d="M145.49,186.78l-.1,2.65,2.4.09-.09,2.3-2.42-.09-.14,3.57c-.03.84.31,1.28,1.03,1.31.46.02.85-.04,1.16-.19l.54,2.33c-.64.22-1.31.33-2.01.34-1.11,0-1.98-.29-2.61-.9-.62-.61-.91-1.61-.86-3l.14-3.57-1.69-.06.09-2.3,1.69.06.09-2.34,2.77-.2Z"/>
      <path class="cls-1" d="M159.39,189.91l-6.34,13.51-3.01-.12,2.13-4.47-3.62-9.34,3.11.12,2.13,6.06,2.55-5.88,3.05.12Z"/>
    </g>
    <path class="cls-1" d="M124.21,59.21c-.1,10-1.73,19.68-4.94,29.15,6.02-8.19,7.89-19.44,4.94-29.15h0Z"/>
    <path class="cls-1" d="M112.69,32.23c-6.18,3.38-12.95,9.2-12.48,16.98.47,3.74,1.66,6.92,2.5,10.49.91,3.42,1.66,6.87,2.7,10.3-.18-5.35-.89-10.69-2.07-15.91-.38-1.73-.87-3.45-.98-5.05-.43-6.96,5.57-12.3,10.32-16.81h0Z"/>
    <path class="cls-1" d="M114.07,37.77c-3.88,2.21-7.08,5.82-8.34,10.23-1.4,4.41.02,9.27,1.29,13.4,2.64,8.1,2.08,16.31-.23,24.54,5.14-7.23,6.46-17.09,3.69-25.54-.62-2.11-1.31-4.09-1.75-6.02-1.55-6.1,1.33-12.03,5.33-16.61h0Z"/>
    <path class="cls-1" d="M77.56,37.77c-8.72,6.27-12.34,18.29-9.42,28.52.9,3.41,2.38,6.66,4.45,9.46-2.48-6.32-3.92-13.07-3.1-19.79.71-6.77,3.76-12.92,8.08-18.19h0Z"/>
    <path class="cls-1" d="M52.04,0c4.01,8.48,11.03,21.58,4.59,30.18-1.54,2.03-3.83,3.58-5.91,5.53-6.49,5.8-8.36,15.34-6.3,23.55-.62-8.17,1.36-16.65,7.69-22.03,1.97-1.79,4.37-3.35,6.24-5.72,7.14-9.68-.39-23.09-6.3-31.51h0Z"/>
    <path class="cls-1" d="M27.84,77.81c1.7-7.04-1.24-15.61-6.93-20.1.55,3.66,1.65,6.87,2.8,10.28,1.21,3.38,2.32,6.59,4.14,9.82h0Z"/>
    <path class="cls-1" d="M11.14,41.17c-4.06,5.97.21,10.91,3.46,15.63,2.98,4.59,3.59,10.12,3.81,15.56.76-2.72,1.06-5.59.78-8.47-.27-2.87-1.16-5.77-2.77-8.25-3.36-4.82-7.35-8.21-5.29-14.47h0Z"/>
    <path class="cls-1" d="M21.81,101.97c-5.31,11.92,2.47,26.5,15.51,28.27-11.61-5.11-17.25-15.79-15.51-28.27h0Z"/>
    <path class="cls-1" d="M137.04,107.95c4.51-5.66,3.74-14.93-1.65-19.76.61,1.68,1.16,3.27,1.56,4.89,1.3,4.92,1.1,9.87.1,14.87h0Z"/>
    <g>
      <path class="cls-1" d="M55.53,122.35l-4.25-.2.13-2.77,11.58.54-.13,2.77-4.25-.2-.52,11.18-3.09-.14.52-11.18Z"/>
      <path class="cls-1" d="M67.44,120.13l-.25,5.32c.75-.88,1.77-1.3,3.05-1.24,2.62.12,3.85,1.76,3.71,4.91l-.25,5.28-2.87-.13.25-5.26c.03-.68-.11-1.21-.43-1.6-.32-.39-.77-.6-1.34-.62-.62-.03-1.16.16-1.59.56s-.68.99-.71,1.74l-.23,4.99-2.87-.14.65-13.96,2.89.14Z"/>
      <path class="cls-1" d="M84.07,125.03l2.69.13-.46,9.85-2.59-.12-.1-1.24c-.33.46-.79.8-1.38,1.01-.59.21-1.16.31-1.72.3-1.5-.06-2.7-.57-3.6-1.54-.9-.97-1.31-2.25-1.24-3.84s.62-2.83,1.64-3.72c1.02-.88,2.27-1.28,3.76-1.18.64.03,1.21.18,1.73.44.51.26.89.61,1.12,1.05l.15-1.13ZM79.37,127.83c-.51.45-.79,1.07-.83,1.87s.18,1.44.65,1.93c.47.49,1.08.75,1.82.78.77.04,1.41-.19,1.92-.67.51-.48.78-1.05.81-1.7.04-.76-.16-1.41-.6-1.96-.43-.55-1.06-.84-1.89-.88-.74-.03-1.37.17-1.89.62Z"/>
    </g>
  </g>
</svg>